<?xml version="1.0" standalone="no"?><!DOCTYPE svg PUBLIC "-//W3C//DTD SVG 1.1//EN" "http://www.w3.org/Graphics/SVG/1.1/DTD/svg11.dtd"><svg t="1487906913653" class="icon" style="" viewBox="0 0 1024 1024" version="1.1" xmlns="http://www.w3.org/2000/svg" p-id="26736" xmlns:xlink="http://www.w3.org/1999/xlink" width="14" height="14"><defs><style type="text/css"></style></defs><path d="M224.288 960l244.352-244.352 409.888 0c44.96 0 81.44-36.48 81.44-81.44L959.968 145.44C960 100.48 923.52 64 878.56 64L145.44 64C100.416 64 64 100.48 64 145.44l0 488.736c0 44.96 36.416 81.44 81.44 81.44l79.552 0M226.912 308.352l81.44 0 0 81.44L226.912 389.792 226.912 308.352zM471.264 308.352l81.44 0 0 81.44-81.44 0L471.264 308.352zM715.648 308.352l81.44 0 0 81.44-81.44 0L715.648 308.352z" p-id="26737" fill="#333330"></path></svg>