<?xml version="1.0" standalone="no"?><!DOCTYPE svg PUBLIC "-//W3C//DTD SVG 1.1//EN" "http://www.w3.org/Graphics/SVG/1.1/DTD/svg11.dtd"><svg t="1488956828880" class="icon" style="" viewBox="0 0 1024 1024" version="1.1" xmlns="http://www.w3.org/2000/svg" p-id="2530" xmlns:xlink="http://www.w3.org/1999/xlink" width="15" height="15"><defs><style type="text/css"></style></defs><path d="M979.547067 960.984804c-9.333576 9.334599-21.784142 9.334599-28.008914 0L767.942695 777.385253l28.005844-28.004821 183.598528 180.483584C985.767745 939.199639 985.767745 951.647135 979.547067 960.984804L979.547067 960.984804zM456.76449 855.179037c-230.268454 0-416.978856-186.706309-416.978856-416.978856 0-230.268454 186.710402-416.978856 416.978856-416.978856 230.273571 0 416.978856 186.710402 416.978856 416.978856C873.743346 668.472727 687.03806 855.179037 456.76449 855.179037L456.76449 855.179037zM456.76449 64.785515c-208.488405 0-373.413642 168.035064-373.413642 373.414665 0 208.490451 168.035064 376.529609 373.413642 376.529609 208.489428 0 376.528586-168.039157 376.528586-376.529609C833.292052 229.711775 665.253918 64.785515 456.76449 64.785515L456.76449 64.785515zM456.76449 64.785515" p-id="2531" fill="#E87e04"></path><path d="M589.088214 357.309872l-235.360426 0c-11.30344 0-20.466124-9.162684-20.466124-20.466124s9.162684-20.466124 20.466124-20.466124l235.360426 0c11.30344 0 20.466124 9.162684 20.466124 20.466124S600.391654 357.309872 589.088214 357.309872z" p-id="2532" fill="#E87e04"></path><path d="M589.088214 467.826941l-235.360426 0c-11.30344 0-20.466124-9.162684-20.466124-20.466124s9.162684-20.466124 20.466124-20.466124l235.360426 0c11.30344 0 20.466124 9.162684 20.466124 20.466124S600.391654 467.826941 589.088214 467.826941z" p-id="2533" fill="#E87e04"></path><path d="M589.088214 574.250786l-235.360426 0c-11.30344 0-20.466124-9.162684-20.466124-20.466124s9.162684-20.466124 20.466124-20.466124l235.360426 0c11.30344 0 20.466124 9.162684 20.466124 20.466124S600.391654 574.250786 589.088214 574.250786z" p-id="2534" fill="#E87e04"></path></svg>