<?xml version="1.0" standalone="no"?><!DOCTYPE svg PUBLIC "-//W3C//DTD SVG 1.1//EN" "http://www.w3.org/Graphics/SVG/1.1/DTD/svg11.dtd"><svg t="1488956084423" class="icon" style="" viewBox="0 0 1195 1024" version="1.1" xmlns="http://www.w3.org/2000/svg" p-id="1732" xmlns:xlink="http://www.w3.org/1999/xlink" width="16.337890625" height="14"><defs><style type="text/css"></style></defs><path d="M1007.555322 296.330036C1007.555322 134.282924 872.540786 2.91493 705.989734 2.91493 539.441278 2.91493 404.424144 134.282924 404.424144 296.330036 404.424144 408.266533 468.857262 505.550412 563.596715 555.021483 411.212868 615.979054 303.906612 761.815137 303.906612 932.061292 303.906612 944.579152 304.518454 956.956712 305.655104 969.186395 315.555001 977.331092 326.194045 981.399649 337.411157 980.963595 349.845458 980.479516 362.039439 976.084867 373.103266 970.188686 371.676933 957.668301 370.919599 944.952007 370.919599 932.062555 370.919599 743.001697 528.435908 589.742615 722.745902 589.742615 727.649735 589.742615 732.522388 589.866479 737.376859 590.059856 738.073139 589.954953 738.777213 589.850049 739.498177 589.742615 800.735681 580.676523 834.891042 563.37599 862.410962 547.785544 862.213507 547.717292 862.017354 547.643985 861.819904 547.576997 949.165284 496.182241 1007.555322 402.892348 1007.555322 296.330036L1007.555322 296.330036ZM705.989734 524.539538C576.454502 524.539538 471.441029 422.366818 471.441029 296.330036 471.441029 170.293253 576.455799 68.119269 705.989734 68.119269 835.527566 68.119269 940.538436 170.291988 940.538436 296.328771 940.538436 422.365554 835.528863 524.539538 705.989734 524.539538L705.989734 524.539538ZM992.416444 620.271326C962.094518 619.767017 946.171022 643.377033 940.920348 663.508742 1022.329173 726.206731 1074.567009 823.193589 1074.567009 932.061292 1074.567009 945.509393 1073.743428 958.767906 1072.192387 971.811556 1082.849616 977.46886 1095.318989 981.715627 1108.075452 980.963595 1119.838157 980.268442 1130.627886 974.963769 1139.995182 967.430815 1141.025314 955.771153 1141.582592 943.980049 1141.582592 932.061292 1141.583895 806.945906 1083.626433 695.018257 992.416444 620.271326L992.416444 620.271326ZM404.425443 557.142339C410.712742 556.124884 437.933885 554.083654 437.933885 524.539538 437.933885 494.995421 404.425443 491.936736 404.425443 491.936736 404.425443 491.936736 309.142996 496.012876 303.907911 491.936736 298.670227 487.864387 188.725644 436.924643 203.383883 296.328772 218.042121 155.732902 330.083337 129.244942 370.920899 133.319818 377.2043 132.302363 406.519477 133.319818 404.425443 100.717016 402.334007 68.118007 382.438085 69.135461 370.920899 68.118007 359.399814 67.098024 135.322578 59.963198 136.372194 328.927783 137.417912 449.144216 203.385182 491.936737 203.385182 491.936737 203.385182 491.936737 26.426312 533.709273 2.342322 817.954645 3.388039 909.648208 2.342322 915.757995 2.342322 915.757995 2.342322 915.757995-3.941079 947.339548 35.846867 948.360795 78.78106 949.378247 69.355308 916.779241 69.355308 883.158983 69.355308 849.536199 34.802447 625.397783 270.396869 557.142339 282.962373 554.083654 404.425443 557.142339 404.425443 557.142339L404.425443 557.142339Z" p-id="1733" fill="#E87e04"></path></svg>