<?xml version="1.0" standalone="no"?><!DOCTYPE svg PUBLIC "-//W3C//DTD SVG 1.1//EN" "http://www.w3.org/Graphics/SVG/1.1/DTD/svg11.dtd"><svg t="1487905073709" class="icon" style="" viewBox="0 0 1024 1024" version="1.1" xmlns="http://www.w3.org/2000/svg" p-id="25115" xmlns:xlink="http://www.w3.org/1999/xlink" width="12" height="12"><defs><style type="text/css"></style></defs><path d="M615.830683 117.371057c-77.891943 0.107447-140.755627 63.823544-140.963358 142.522875 0.207731 78.73003 63.071415 142.358123 140.963358 142.530038 77.802916-0.172939 140.828282-63.800008 140.89582-142.530038C756.658965 181.193578 693.633599 117.476457 615.830683 117.371057L615.830683 117.371057M872.903363 259.892909c0-143.55232-115.09932-259.892909-257.007188-259.892909-133.654912 0-243.510816 103.275028-255.799688 235.210788-32.445937-50.02939-88.310213-83.214154-151.879977-83.214154-100.493685 0-181.867936 82.318762-181.867936 183.929896 0 63.181931 31.571011 118.870199 79.498532 151.967982l-4.358257 0c-56.07303 0-101.468895 45.937193-101.468895 102.598624l0 330.888799c0 56.662454 45.395864 102.617043 101.468895 102.617043l641.845659 0c55.960467 0 101.417729-45.956635 101.417729-102.617043L844.752237 590.494158c0-56.660408-45.457263-102.598624-101.417729-102.598624l-4.037962 0C818.859546 443.732753 872.903363 358.207977 872.903363 259.892909L872.903363 259.892909M309.366132 487.895535c38.118118-26.046187 66.222171-65.88755 76.360056-112.884887 23.582068 48.10353 61.700186 87.339097 108.197126 112.884887L309.366132 487.895535 309.366132 487.895535M615.830683 441.257378c-98.98738 0-179.254414-81.206429-179.254414-181.36447 0-100.151901 80.268058-181.298978 179.254414-181.298978 99.071291 0 179.289207 81.147077 179.394607 181.298978C795.118866 360.049926 714.901974 441.257378 615.830683 441.257378L615.830683 441.257378M859.448946 696.529041l0 140.662506 164.528029 135.472302L1023.976976 548.958201 859.448946 696.529041 859.448946 696.529041M949.09048 696.529041 949.09048 696.529041z" p-id="25116" fill="#333330"></path></svg>